<svg xmlns="http://www.w3.org/2000/svg" xmlns:xlink="http://www.w3.org/1999/xlink" viewBox="0 0 300.91 301.22"><defs><style>.cls-1{font-size:22.84px;font-family:ClarendonBT-Black, Clarendon Blk BT;font-weight:800;letter-spacing:0.08em;}.cls-2{letter-spacing:0.06em;}.cls-3{fill:url(#linear-gradient);}.cls-4{font-size:21px;font-family:Evermore;}.cls-5{fill:url(#linear-gradient-16);}.cls-6{fill:url(#linear-gradient-20);}.cls-7{fill:url(#linear-gradient-21);}.cls-8{fill:url(#linear-gradient-22);}.cls-9{fill:url(#linear-gradient-23);}.cls-10{fill:url(#linear-gradient-24);}.cls-11{fill:url(#linear-gradient-25);}.cls-12{fill:url(#linear-gradient-26);}.cls-13{fill:url(#linear-gradient-27);}.cls-14{fill:url(#linear-gradient-28);}.cls-15{fill:url(#linear-gradient-29);}.cls-16{fill:url(#linear-gradient-30);}.cls-17{fill:url(#linear-gradient-31);}.cls-18{fill:url(#linear-gradient-32);}.cls-19{fill:url(#linear-gradient-33);}.cls-20{fill:url(#linear-gradient-34);}.cls-21{fill:url(#linear-gradient-35);}.cls-22{fill:url(#linear-gradient-36);}.cls-23{fill:url(#linear-gradient-37);}.cls-24{fill:url(#linear-gradient-38);}.cls-25{fill:url(#linear-gradient-39);}.cls-26{fill:url(#linear-gradient-40);}.cls-27{fill:url(#linear-gradient-41);}.cls-28{fill:url(#linear-gradient-42);}.cls-29{fill:url(#linear-gradient-43);}</style><linearGradient id="linear-gradient" x1="119.31" y1="102.25" x2="173.69" y2="196.43" gradientUnits="userSpaceOnUse"><stop offset="0" stop-color="#312783"/><stop offset="1" stop-color="#009fe3"/></linearGradient><linearGradient id="linear-gradient-16" x1="133.06" y1="169.41" x2="163.28" y2="221.76" xlink:href="#linear-gradient"/><linearGradient id="linear-gradient-20" x1="254.14" y1="127.74" x2="268.41" y2="152.46" xlink:href="#linear-gradient"/><linearGradient id="linear-gradient-21" x1="251.24" y1="153.94" x2="268.02" y2="183" xlink:href="#linear-gradient"/><linearGradient id="linear-gradient-22" x1="250.25" y1="109.99" x2="261.66" y2="129.76" xlink:href="#linear-gradient"/><linearGradient id="linear-gradient-23" x1="243.52" y1="176.22" x2="258.74" y2="202.58" xlink:href="#linear-gradient"/><linearGradient id="linear-gradient-24" x1="238.69" y1="194.02" x2="253.21" y2="219.18" xlink:href="#linear-gradient"/><linearGradient id="linear-gradient-25" x1="230.23" y1="69.22" x2="253.19" y2="108.97" xlink:href="#linear-gradient"/><linearGradient id="linear-gradient-26" x1="220.98" y1="210.82" x2="236.85" y2="238.32" xlink:href="#linear-gradient"/><linearGradient id="linear-gradient-27" x1="205.5" y1="222.49" x2="223.46" y2="253.6" xlink:href="#linear-gradient"/><linearGradient id="linear-gradient-28" x1="196.86" y1="196.5" x2="200.44" y2="202.7" xlink:href="#linear-gradient"/><linearGradient id="linear-gradient-29" x1="185.73" y1="235.15" x2="204.51" y2="267.69" xlink:href="#linear-gradient"/><linearGradient id="linear-gradient-30" x1="164.65" y1="250.52" x2="181.57" y2="279.83" xlink:href="#linear-gradient"/><linearGradient id="linear-gradient-31" x1="111.64" y1="246.49" x2="128.03" y2="274.88" xlink:href="#linear-gradient"/><linearGradient id="linear-gradient-32" x1="130.67" y1="43.71" x2="167.81" y2="108.04" xlink:href="#linear-gradient"/><linearGradient id="linear-gradient-33" x1="87.06" y1="238.14" x2="105.3" y2="269.73" xlink:href="#linear-gradient"/><linearGradient id="linear-gradient-34" x1="96.87" y1="196.03" x2="100.31" y2="201.99" xlink:href="#linear-gradient"/><linearGradient id="linear-gradient-35" x1="71.25" y1="227.12" x2="87.92" y2="256" xlink:href="#linear-gradient"/><linearGradient id="linear-gradient-36" x1="59.61" y1="216.14" x2="73.61" y2="240.39" xlink:href="#linear-gradient"/><linearGradient id="linear-gradient-37" x1="48.72" y1="202.27" x2="58.37" y2="218.98" xlink:href="#linear-gradient"/><linearGradient id="linear-gradient-38" x1="47.53" y1="76.3" x2="63.51" y2="103.98" xlink:href="#linear-gradient"/><linearGradient id="linear-gradient-39" x1="36.29" y1="102.31" x2="50.07" y2="126.17" xlink:href="#linear-gradient"/><linearGradient id="linear-gradient-40" x1="42.28" y1="181.37" x2="56.54" y2="206.07" xlink:href="#linear-gradient"/><linearGradient id="linear-gradient-41" x1="34.52" y1="155.69" x2="51.71" y2="185.45" xlink:href="#linear-gradient"/><linearGradient id="linear-gradient-42" x1="33.5" y1="124.33" x2="48.74" y2="150.73" xlink:href="#linear-gradient"/><linearGradient id="linear-gradient-43" x1="74.96" y1="19.74" x2="225.93" y2="281.22" xlink:href="#linear-gradient"/></defs><g id="Layer_2" data-name="Layer 2"><g id="Objects"><text class="cls-1" transform="translate(98.99 129.09)">KN<tspan class="cls-2" x="41.48" y="0">O</tspan><tspan x="62.04" y="0">XX</tspan><tspan x="-38.05" y="34">UNIVERSITY</tspan></text><path class="cls-3" d="M107.73,113.77v2.16h-.13a1.72,1.72,0,0,0-1,.19c-.16.13-.24.5-.24,1.12V121l4.94-4.08a1.62,1.62,0,0,0,.29-.31.65.65,0,0,0,.09-.32.3.3,0,0,0-.22-.29,1.81,1.81,0,0,0-.67-.1h-1.28v-2.16h8.54v2.16h-.78a2.19,2.19,0,0,0-1,.29,7.38,7.38,0,0,0-1.2.84l-3.09,2.64,4.13,6.19a2.61,2.61,0,0,0,.75.79,1.67,1.67,0,0,0,.91.24h.93v2.17h-9.48v-2.17H110a2.3,2.3,0,0,0,.82-.1.34.34,0,0,0,.25-.32.94.94,0,0,0,0-.3.91.91,0,0,0-.13-.26l-2.24-3.4-2.3,1.78v1.28a1.68,1.68,0,0,0,.23,1.1,1.5,1.5,0,0,0,1,.22h.5v2.17H99.35v-2.17h.77a1.71,1.71,0,0,0,1-.21c.15-.14.22-.51.22-1.11v-8.36c0-.6-.07-1-.22-1.1a1.67,1.67,0,0,0-1-.21h-.77v-2.16Z"/><path class="cls-3" d="M128.11,113.77l5.65,10.32v-6.85c0-.62-.08-1-.24-1.12a1.88,1.88,0,0,0-1-.19h-.87v-2.16h6.73v2.16h-.54a1.65,1.65,0,0,0-1,.21c-.16.14-.23.5-.23,1.1v11.85H131.3l-6-11v7.49c0,.6.07,1,.23,1.11a1.65,1.65,0,0,0,1,.21h.68v2.17h-6.76v-2.17h.75a1.66,1.66,0,0,0,1-.22,1.68,1.68,0,0,0,.23-1.1v-8.36a1,1,0,0,0-1.28-1.31h-.75v-2.16Z"/><path class="cls-3" d="M141.2,121.44a7.66,7.66,0,0,1,2.37-6,10.88,10.88,0,0,1,13,0,8.71,8.71,0,0,1,0,11.92,9.4,9.4,0,0,1-6.55,2.15,9.26,9.26,0,0,1-6.5-2.16A7.68,7.68,0,0,1,141.2,121.44Zm8.9-5.8a2.39,2.39,0,0,0-2.26,1.37,10.13,10.13,0,0,0-.7,4.39,10.38,10.38,0,0,0,.7,4.45,2.54,2.54,0,0,0,4.5,0,10.1,10.1,0,0,0,.71-4.39,10.33,10.33,0,0,0-.71-4.44A2.33,2.33,0,0,0,150.1,115.64Z"/><path class="cls-3" d="M163,116.92a3.65,3.65,0,0,0-.8-.8,1.14,1.14,0,0,0-.66-.19H161v-2.16h8.58v2.16h-.39a.82.82,0,0,0-.5.13.38.38,0,0,0-.18.33.86.86,0,0,0,.1.33,3.59,3.59,0,0,0,.32.47l1.16,1.6,1.83-2.1a1.05,1.05,0,0,0,.15-.21.37.37,0,0,0,0-.16.33.33,0,0,0-.19-.28,1.15,1.15,0,0,0-.54-.11h-.67v-2.16h7v2.16h-.44a2.32,2.32,0,0,0-.94.18,1.76,1.76,0,0,0-.7.52l-3.42,4,3.88,5.42a2.4,2.4,0,0,0,.71.65,1.71,1.71,0,0,0,.84.23h.61v2.17h-8.72v-2.17h.48a1,1,0,0,0,.51-.11.4.4,0,0,0,.17-.35.71.71,0,0,0-.09-.29,4.7,4.7,0,0,0-.32-.51L169,123.8l-2,2.36c-.06.08-.1.15-.14.21a.51.51,0,0,0-.05.17.32.32,0,0,0,.2.28,1.16,1.16,0,0,0,.54.1h.83v2.17h-7.62v-2.17h.75a2.33,2.33,0,0,0,1.06-.23,3.86,3.86,0,0,0,1.09-1l3.22-3.83Z"/><path class="cls-3" d="M181.64,116.92a4.15,4.15,0,0,0-.8-.8,1.19,1.19,0,0,0-.67-.19h-.52v-2.16h8.59v2.16h-.39a.79.79,0,0,0-.5.13.38.38,0,0,0-.18.33.71.71,0,0,0,.1.33,2.66,2.66,0,0,0,.31.47l1.16,1.6,1.83-2.1a1.17,1.17,0,0,0,.16-.21.53.53,0,0,0,0-.16.32.32,0,0,0-.19-.28,1.1,1.1,0,0,0-.53-.11h-.67v-2.16h7v2.16H196a2.33,2.33,0,0,0-1,.18,1.67,1.67,0,0,0-.69.52l-3.43,4,3.88,5.42a2.32,2.32,0,0,0,.72.65,1.68,1.68,0,0,0,.83.23h.62v2.17h-8.72v-2.17h.48a1,1,0,0,0,.5-.11.39.39,0,0,0,.18-.35.76.76,0,0,0-.1-.29,3.52,3.52,0,0,0-.32-.51l-1.36-1.86-2,2.36c-.05.08-.1.15-.13.21a.35.35,0,0,0-.05.17.31.31,0,0,0,.19.28,1.16,1.16,0,0,0,.54.1H187v2.17h-7.63v-2.17h.76a2.32,2.32,0,0,0,1-.23,3.86,3.86,0,0,0,1.09-1l3.22-3.83Z"/><path class="cls-3" d="M68.18,158a4.14,4.14,0,0,0,.55,2.48,2.21,2.21,0,0,0,1.87.72,3.07,3.07,0,0,0,2.24-.7,3.27,3.27,0,0,0,.68-2.31v-6.95a1.78,1.78,0,0,0-.22-1.11,1.76,1.76,0,0,0-1-.2h-.78v-2.16h7.1v2.16h-.7a1.67,1.67,0,0,0-1,.21,1.52,1.52,0,0,0-.23,1v7.4a4.32,4.32,0,0,1-1.77,3.73,8.89,8.89,0,0,1-5.2,1.27,8,8,0,0,1-4.82-1.26,4.15,4.15,0,0,1-1.71-3.55v-7.52c0-.58-.07-.94-.23-1.09a1.73,1.73,0,0,0-1-.22h-.78v-2.16h9.24v2.16h-.85a1.74,1.74,0,0,0-1.06.22,1.7,1.7,0,0,0-.22,1.09Z"/><path class="cls-3" d="M88.47,147.77l5.64,10.32v-6.85c0-.62-.08-1-.24-1.12a1.88,1.88,0,0,0-1-.19H92v-2.16h6.74v2.16h-.55a1.67,1.67,0,0,0-1,.21c-.15.14-.23.5-.23,1.1v11.85H91.66l-6-11v7.49A1,1,0,0,0,87,160.92h.69v2.17H80.89v-2.17h.74a1.62,1.62,0,0,0,1.05-.22c.16-.14.24-.51.24-1.1v-8.36a1.69,1.69,0,0,0-.23-1.09,1.74,1.74,0,0,0-1.06-.22h-.74v-2.16Z"/><path class="cls-3" d="M110.39,147.77v2.16h-.74a1.72,1.72,0,0,0-1.06.22,1.69,1.69,0,0,0-.23,1.09v8.36c0,.59.08,1,.24,1.1a1.62,1.62,0,0,0,1.05.22h.74v2.17h-9.11v-2.17H102a1.64,1.64,0,0,0,1-.22,1.68,1.68,0,0,0,.23-1.1v-8.36a1,1,0,0,0-1.27-1.31h-.76v-2.16Z"/><path class="cls-3" d="M114.57,151.81a3.53,3.53,0,0,0-.76-1.42,1.51,1.51,0,0,0-1.14-.46H112v-2.16h9.18v2.16h-.85a2.17,2.17,0,0,0-.89.13.48.48,0,0,0-.22.45,3.07,3.07,0,0,0,.06.57v0l2.42,7.83,2.55-7.86c0-.13.06-.23.08-.33a1.11,1.11,0,0,0,0-.23.47.47,0,0,0-.23-.45,2.08,2.08,0,0,0-.92-.13h-.77v-2.16h7.13v2.16H129a1.71,1.71,0,0,0-1.09.31,2.37,2.37,0,0,0-.66,1.18l-3.86,11.67h-5.23Z"/><path class="cls-3" d="M147.16,147.77v5.71h-2.44a10.14,10.14,0,0,0-.49-1.74,3.13,3.13,0,0,0-.64-1,2.46,2.46,0,0,0-1.06-.62,7.52,7.52,0,0,0-2-.19h-2.42v4.21h.59a1.8,1.8,0,0,0,1.45-.5,2.86,2.86,0,0,0,.42-1.79v-.13h1.92v7h-1.92a3.93,3.93,0,0,0-.42-2.08,1.72,1.72,0,0,0-1.43-.48h-.61v4.77h2.71a8.13,8.13,0,0,0,2.17-.19,1.73,1.73,0,0,0,.92-.65,4.51,4.51,0,0,0,.56-1.33,9.65,9.65,0,0,0,.27-2h2.52v6.32H131.07v-2.17h.77a1.84,1.84,0,0,0,1-.18q.24-.18.24-1v-8.48c0-.6-.07-1-.22-1.1a1.69,1.69,0,0,0-1-.21h-.75v-2.16Z"/><path class="cls-3" d="M152.61,159.6v-8.36c0-.6-.08-1-.23-1.1a1.67,1.67,0,0,0-1-.21h-.76v-2.16h10.55a7.43,7.43,0,0,1,4.17.95,3.23,3.23,0,0,1,1.38,2.86,3,3,0,0,1-.85,2.18,4.41,4.41,0,0,1-2.4,1.2,2.94,2.94,0,0,1,2.12,1c.37.51.55,1.67.55,3.49a3.3,3.3,0,0,0,.14,1.15.47.47,0,0,0,.46.31.51.51,0,0,0,.47-.39,3.47,3.47,0,0,0,.15-1.18c0-.05,0-.14,0-.25s0-.21,0-.27h1.55c0,.07,0,.17,0,.3s0,.24,0,.31a4.53,4.53,0,0,1-.89,3.11,3.68,3.68,0,0,1-2.84,1,4.43,4.43,0,0,1-3-.87,3.59,3.59,0,0,1-.95-2.76v-1.29a3,3,0,0,0-.41-1.95,2.41,2.41,0,0,0-1.69-.42h-1.37v3.43a1.7,1.7,0,0,0,.23,1.11,1.63,1.63,0,0,0,1,.21h.87v2.17h-9.22v-2.17h.76a1,1,0,0,0,1.27-1.32Zm5-5.51H159a3.29,3.29,0,0,0,2-.45,1.78,1.78,0,0,0,.58-1.51,2.11,2.11,0,0,0-.53-1.63,2.87,2.87,0,0,0-1.87-.47h-1.51Z"/><path class="cls-3" d="M171.84,157.45h2.21a5.44,5.44,0,0,0,1.81,2.77,4.64,4.64,0,0,0,3,1,2.89,2.89,0,0,0,1.67-.44,1.36,1.36,0,0,0,.62-1.15c0-.74-.9-1.36-2.71-1.86q-.88-.22-1.38-.39c-1.09-.32-1.93-.6-2.51-.83a5.37,5.37,0,0,1-1.27-.65,4.54,4.54,0,0,1-1.37-1.53,4.15,4.15,0,0,1-.44-1.92,4.6,4.6,0,0,1,1.71-3.72,6.83,6.83,0,0,1,4.52-1.42,12.5,12.5,0,0,1,2.67.28,10.77,10.77,0,0,1,2.4.86l.41-.77h2.2V153h-2.58a4.11,4.11,0,0,0-1.43-2.43,4.52,4.52,0,0,0-2.8-.79,2.83,2.83,0,0,0-1.69.47,1.36,1.36,0,0,0-.66,1.14c0,.69.85,1.21,2.54,1.55l1,.22a12.08,12.08,0,0,1,5,2,4.11,4.11,0,0,1,1.43,3.3,4.45,4.45,0,0,1-1.76,3.69,7.47,7.47,0,0,1-4.74,1.38,10.8,10.8,0,0,1-2.62-.31,11.35,11.35,0,0,1-2.5-.93l-.56.85h-2.1Z"/><path class="cls-3" d="M198,147.77v2.16h-.75a1,1,0,0,0-1.28,1.31v8.36a1.68,1.68,0,0,0,.23,1.1,1.66,1.66,0,0,0,1.05.22H198v2.17h-9.11v-2.17h.76a1.59,1.59,0,0,0,1-.22c.16-.14.24-.51.24-1.1v-8.36a1,1,0,0,0-1.27-1.31h-.76v-2.16Z"/><path class="cls-3" d="M205.46,150.17a2.29,2.29,0,0,0-1.93.85,3.94,3.94,0,0,0-.67,2.48v.07h-2.27v-5.8h16.13v5.8h-2.24v-.07a4,4,0,0,0-.67-2.47,2.31,2.31,0,0,0-1.95-.86h-.67v9.43a1.68,1.68,0,0,0,.23,1.1,1.66,1.66,0,0,0,1.05.22h1.28v2.17H203.67v-2.17h1.2a1.88,1.88,0,0,0,1-.18c.16-.13.25-.5.25-1.14v-9.43Z"/><path class="cls-3" d="M220.88,151.37a3.61,3.61,0,0,0-1-1.09,2,2,0,0,0-1.14-.35h-.43v-2.16h8.93v2.16h-.53a1.72,1.72,0,0,0-.78.14.44.44,0,0,0-.25.42.63.63,0,0,0,.05.26,1.67,1.67,0,0,0,.18.35l1.81,3,1.81-3a1.5,1.5,0,0,0,.16-.36,1.43,1.43,0,0,0,.06-.39c0-.11-.08-.21-.25-.28a1.84,1.84,0,0,0-.69-.11h-.57v-2.16h6.87v2.16h-.48a1.53,1.53,0,0,0-.94.32,4.62,4.62,0,0,0-1,1.22L229.31,157v2.65a1.68,1.68,0,0,0,.23,1.1,1.66,1.66,0,0,0,1.05.22h.84v2.17h-9.31v-2.17H223a1.86,1.86,0,0,0,1-.18c.16-.13.24-.5.24-1.14V157Z"/><text class="cls-4" transform="translate(111.42 210.02)">1894</text><path class="cls-5" d="M118,210h-5.25V181.15H118Z"/><path class="cls-5" d="M139.72,195.58a8.2,8.2,0,0,1,1.09,8.77,9.1,9.1,0,0,1-2.28,3,10.48,10.48,0,0,1-3.4,2,11.89,11.89,0,0,1-8,0,10.53,10.53,0,0,1-3.41-2,9.21,9.21,0,0,1-2.27-3,8.29,8.29,0,0,1,1.09-8.77,7.83,7.83,0,0,1-1.09-1.74,8.1,8.1,0,0,1,0-7,9.1,9.1,0,0,1,2.27-3,10.74,10.74,0,0,1,3.41-2,12.06,12.06,0,0,1,8,0,10.69,10.69,0,0,1,3.4,2,9,9,0,0,1,2.28,3,8.1,8.1,0,0,1,0,7A7.83,7.83,0,0,1,139.72,195.58Zm-8.61-1.31a6,6,0,0,0,3.71-1.15,3.29,3.29,0,0,0,0-5.57,6.56,6.56,0,0,0-7.42,0,3.29,3.29,0,0,0,0,5.57A6,6,0,0,0,131.11,194.27Zm0,10.5a6,6,0,0,0,3.71-1.15,3.29,3.29,0,0,0,0-5.57,6.56,6.56,0,0,0-7.42,0,3.29,3.29,0,0,0,0,5.57A6,6,0,0,0,131.11,204.77Z"/><path class="cls-5" d="M155.64,202.11l-.76,0h-.21a10.56,10.56,0,0,1-3.87-.74,9.87,9.87,0,0,1-3.39-2.22,10.56,10.56,0,0,1-2.33-3.36,10.32,10.32,0,0,1-.85-4v-.2a10.45,10.45,0,0,1,3-7.28,10.16,10.16,0,0,1,3.37-2.32,10.42,10.42,0,0,1,4-.86h.1a10.53,10.53,0,0,1,4,.76,10.13,10.13,0,0,1,3.4,2.21,10.45,10.45,0,0,1,2.33,3.37,10.23,10.23,0,0,1,.87,4v.11a10.68,10.68,0,0,1-.73,3.91c-.17.39-.35.76-.54,1.13h0L157.89,210h-5.78Zm2.74-14.24a5.12,5.12,0,0,0-3.67-1.47l-1.14,0A4.21,4.21,0,0,0,151,188a5,5,0,0,0-1.48,3.61s0,.43,0,1.18a4.2,4.2,0,0,0,1.57,2.63,5,5,0,0,0,3.61,1.48l1.18,0a4.29,4.29,0,0,0,2.64-1.58,5.11,5.11,0,0,0,1.49-3.67s0-.41,0-1.14A4.25,4.25,0,0,0,158.38,187.87Z"/><path class="cls-5" d="M167.86,181.15h5.25V196.9h5.25V181.15h5.25V196.9h5.25v5.25h-5.25V210h-5.25v-7.87h-10.5Z"/><path class="cls-6" d="M261.73,147.28c.09,3,.09,6,0,9.05l-3-.14c.07-2.27.08-4.55,0-6.82-8.18,1.06-15.47-5.46-17-13.25-.15-.79.37-1.85,1.32-1.75a23.07,23.07,0,0,1,15.33,7.76c-.29-3.68-.72-7.33-1.31-11l3-.48c.49,3,.89,6.11,1.17,9.17a24,24,0,0,1,10.46-10.57,1.41,1.41,0,0,1,2.08,1.2A15.23,15.23,0,0,1,261.73,147.28Z"/><path class="cls-7" d="M261.71,156.33a120.54,120.54,0,0,1-1.13,12.88,18.92,18.92,0,0,1,4.29-4.47c2-1.47,7-4.71,9.59-2.68,2.91,2.31-.58,7.18-2,9.08a18,18,0,0,1-12.32,7.3.52.52,0,0,1-.55-.44,1.45,1.45,0,0,1-.56.17,107.81,107.81,0,0,1-3.35,12l-2.79-.93a107.78,107.78,0,0,0,3.44-12.7,24,24,0,0,1-12.75-16.94c-.15-.76.38-1.83,1.31-1.71,6.77.88,10.44,5.43,12.77,11a119.45,119.45,0,0,0,1.12-12.67Z"/><path class="cls-8" d="M258.6,122.89q.87,3.87,1.49,7.78l-3,.48c-.36-2.2-.77-4.37-1.24-6.54-6.25,2.23-13.29-.3-17.69-5a1.34,1.34,0,0,1,.26-2.09,16.69,16.69,0,0,1,15.85.61c-.79-3-1.7-5.95-2.69-8.88l2.89-1q.79,2.3,1.49,4.62a22.21,22.21,0,0,1,6.45-8.95,1.39,1.39,0,0,1,2.13.27C267.8,111,265.44,119.58,258.6,122.89Z"/><path class="cls-9" d="M252.22,191c.21-.59.42-1.18.62-1.79l2.79.93c-.08.28-.17.56-.27.83a14.67,14.67,0,0,1,11.25-3.17c.81.11,1.73.84,1.36,1.79-2.5,6.47-9,10.94-16,10-1,2.31-2.12,4.6-3.32,6.87-.5,1-1,1.91-1.56,2.84l-2.57-1.41c.55-1,1.07-1.94,1.59-2.93,1.25-2.4,2.41-4.82,3.47-7.28-7.44-2.68-10.73-11.78-9.46-19a1.35,1.35,0,0,1,2-.82A27.57,27.57,0,0,1,252.22,191Z"/><path class="cls-10" d="M245.46,212.14a26.06,26.06,0,0,1,15.25-3.08A1.51,1.51,0,0,1,262,211.3c-4.29,7.32-13.32,11.06-21.42,8.23l-2.37-1.76.13-.17c-4.4-5.91-5.28-13.64-3.83-20.69a1.45,1.45,0,0,1,2.41-.65,25.07,25.07,0,0,1,6,14.48c.58-1,1.15-1.91,1.7-2.87l2.57,1.41C246.6,210.24,246,211.19,245.46,212.14Z"/><path class="cls-11" d="M251.58,109.22q-1.52-4.39-3.32-8.66c-5.84,5.49-15.56,4.66-20.63-1.62a1.3,1.3,0,0,1,.24-2,22,22,0,0,1,18-1.77q-2-4.22-4.29-8.29c-9.4-.24-13.42-11.84-8.55-19.07a1.42,1.42,0,0,1,1.87-.49c6.35,3.15,10.5,10.43,9,17.4,1.4,2.49,2.73,5,4,7.57a33.91,33.91,0,0,1,6.8-11.75,1.28,1.28,0,0,1,2.14.56c1.73,7.08.61,14.11-4.11,19.77a.64.64,0,0,1-1,0c1,2.43,1.91,4.9,2.75,7.37Z"/><path class="cls-12" d="M220.43,237c2.45-2.06,4.82-4.25,7.07-6.55l-.11-.24c-5.47-4.84-6.08-14-3.72-20.49a1.42,1.42,0,0,1,2.35-.63,18.76,18.76,0,0,1,4.71,16.61,7.47,7.47,0,0,0-.41,1.77,104.58,104.58,0,0,0,7.89-9.69l2.37,1.76q-3.17,4.35-6.7,8.37a19.37,19.37,0,0,1,3.8-.48,20.34,20.34,0,0,1,9.68,2.39,1.43,1.43,0,0,1,0,2.45,21,21,0,0,1-18.81,1.29c-2,2-4.07,3.85-6.19,5.67Z"/><path class="cls-13" d="M211.06,244.22c-5.79-6.57-4.4-17.63-.25-24.58a1.48,1.48,0,0,1,2.31-.31A21.28,21.28,0,0,1,217,239.85q1.75-1.38,3.46-2.86l1.93,2.23a26.62,26.62,0,0,1,7,.38c2.49.5,7.3,1.27,7.29,4.58s-4.55,3.86-7,4.06a24.28,24.28,0,0,1-14.27-3.54,110,110,0,0,1-11.89,7.51l-1.41-2.43Q206.72,247.21,211.06,244.22Z"/><path class="cls-14" d="M197.48,196.66a3.44,3.44,0,0,1,3.85.48c2.62,2.3-.27,6.59-3.34,6.19a3.76,3.76,0,0,1-1.94-6.34.77.77,0,0,1,.95-.12l.1-.09A1.86,1.86,0,0,1,197.48,196.66Z"/><path class="cls-15" d="M178.43,259.61a110.3,110.3,0,0,0,14.86-5.39c-3.7-7.55-2.68-16.59,1.17-23.87a1.52,1.52,0,0,1,2.6,0,25.2,25.2,0,0,1,1.79,21.19c1.1-.57,2.18-1.16,3.25-1.76l1.41,2.43a36.91,36.91,0,0,1,16.25,4.13c1.25.63.77,2.32-.36,2.73a27.37,27.37,0,0,1-24.61-2.6,101.32,101.32,0,0,1-15.73,5.38Z"/><path class="cls-16" d="M152.81,263.6A102.27,102.27,0,0,0,168.06,262a19.52,19.52,0,0,1,10.17-19.33A1.6,1.6,0,0,1,180.6,244a27.2,27.2,0,0,1-2.79,15.75l.62-.18.63,2.24a30.43,30.43,0,0,1,16.84,7.49c1.12,1,.14,2.57-1.11,2.68a25.92,25.92,0,0,1-20.36-7.19c-.22,0-.43,0-.65,0a1.66,1.66,0,0,1-1.6-1.53c-.49.1-1,.18-1.49.26a1.61,1.61,0,0,1-1.15.21,95.11,95.11,0,0,1-16.73,1.08A.64.64,0,0,1,152.81,263.6Z"/><path class="cls-17" d="M118.94,261.85l.64-2.24c.2.07.41.12.61.18A27.28,27.28,0,0,1,117.4,244a1.6,1.6,0,0,1,2.37-1.36A19.5,19.5,0,0,1,129.94,262a102.27,102.27,0,0,0,15.25,1.59.64.64,0,0,1,0,1.27,95.17,95.17,0,0,1-16.73-1.08,1.58,1.58,0,0,1-1.14-.21c-.51-.08-1-.16-1.5-.26a1.66,1.66,0,0,1-1.6,1.53c-.22,0-.42,0-.64,0A26,26,0,0,1,103.21,272c-1.25-.11-2.22-1.71-1.11-2.68A30.43,30.43,0,0,1,118.94,261.85Z"/><path class="cls-18" d="M190,90.7l-4.62.11c1.35.08,2.68.18,4,.27a.6.6,0,0,1,.6-.38h.15a.65.65,0,0,0,.37,0Zm2.56.65v0c0-.23,0-.47,0-.7H192v0a.25.25,0,0,1,0,.07.61.61,0,0,1-.07.57Zm-45.13,3.82a4.26,4.26,0,0,0,1.76.27,3.87,3.87,0,0,0,3-1.65A5.08,5.08,0,0,1,147.42,95.17Zm-10.5-5.68L138,89.2c-1.38.06-2.77.1-4.16.15l2.32.1s.1,0,.15-.07a.4.4,0,0,1,.39.1Zm7.27-1.31c.12-.3.59-.19.49.14a6.18,6.18,0,0,0,.46,2.41,4.17,4.17,0,0,0,2,2.44,2.55,2.55,0,0,0,.51.2,19.5,19.5,0,0,0-.3-2.66.41.41,0,0,1-.52-.41c0-.51,0-1,0-1.53a8.66,8.66,0,0,0-5.24-5.44c-3.57-1.36-7.52-.44-11.09.44-6.34,1.55-12.64,3.27-19,4.8,10.59-.44,21.17-.81,31.76-1.21a.81.81,0,0,1,.57,1.4s0,0,0,0A3.8,3.8,0,0,0,144.19,88.18ZM131.43,46.29c-4.43,2.49-8.71,5-13.23,7.22-2.21,1.11-3.23,2-3.92,4.46-.42,1.46-.55,3.15-.82,4.64q-.87,4.64-1.9,9.24c-1.25,5.55-2.72,11.07-4.4,16.51,5.79-1.7,11.65-3.19,17.49-4.71,4.26-1.13,8.68-2.64,13.13-2.62a10.7,10.7,0,0,1,9.05,4.46c0-13.45.65-26.94,1-40.39C142.73,41.61,136.43,43.45,131.43,46.29Zm17.26,43.1c1.22-5.19,7.1-8.15,12.62-8.34,10.42-.37,21.24,3.64,31.1,6.82-2.86-13.13-5.33-26.39-7.77-39.6-5.81-.09-10.83.93-15.82-2.7-3.15-2.28-5.57-4.43-9.68-4.54a13.31,13.31,0,0,0-9.62,3.76h0a1.05,1.05,0,0,1-.39.63c-.34,14-.41,28-1.19,41.94A15.3,15.3,0,0,1,148.69,89.39Zm5.06-1.21c6.54-.35,13.26.53,19.82.66q8,.16,16,0a164.12,164.12,0,0,0-18.93-5.07c-7.37-1.39-22.12-2.08-20.9,9.47a4.15,4.15,0,0,0,2.35-4,.87.87,0,0,1,1.25-.85A.64.64,0,0,1,153.75,88.18ZM155,91.4a6.09,6.09,0,0,1-12.16,0c-12.28.26-24.48.24-36.76,1a1,1,0,0,1-.92-1.19,3.16,3.16,0,0,1,.36-.7.54.54,0,0,1-.09-.32.53.53,0,0,0,0-.12.55.55,0,0,1,0-.36c2.07-7.84,4-15.73,5.62-23.69.69-3.45.68-8.07,2.09-11.29.84-1.9,2.06-2.1,3.93-2.68,9.59-2.92,20.51-15.58,31.09-8.8a.63.63,0,0,1,.94.44,13.85,13.85,0,0,1,14.56-3.44c3.11,1.13,5.18,3.71,8,5.23,4.17,2.2,9.12.56,13.58,1.21a.62.62,0,0,1,.57.6.74.74,0,0,1,.25.41c2.76,13.55,5.5,27.15,7.8,40.79a.92.92,0,0,1,.23.66,1,1,0,0,1,.19.52c0,.55,0,1.11,0,1.66a.9.9,0,0,1-.22.61.77.77,0,0,1-.7,1.14c-12.66.2-25.54-.84-38.18-1.6A.9.9,0,0,1,155,91.4Zm-.41-1.25a.42.42,0,0,1,.06-.52l-.7-.13a5.51,5.51,0,0,1,0,.57A.86.86,0,0,1,154.61,90.15Z"/><path class="cls-19" d="M119.58,259.61l-.64,2.24a101.32,101.32,0,0,1-15.73-5.38,27.37,27.37,0,0,1-24.61,2.6c-1.13-.41-1.61-2.1-.36-2.73a37,37,0,0,1,16.26-4.13l1.4-2.43c1.07.6,2.16,1.19,3.26,1.76a25.2,25.2,0,0,1,1.78-21.19,1.52,1.52,0,0,1,2.6,0c3.85,7.28,4.87,16.32,1.17,23.87A109.94,109.94,0,0,0,119.58,259.61Z"/><path class="cls-20" d="M100.94,197.11a2.71,2.71,0,0,1,1.19,2.63c-.32,1.94-2.48,2.86-4.25,2.49a3.37,3.37,0,0,1-2.38-4.44,3,3,0,0,1,4.94-1.35A3.16,3.16,0,0,1,100.94,197.11Z"/><path class="cls-21" d="M94.5,252.21a109.17,109.17,0,0,1-11.9-7.51,24.24,24.24,0,0,1-14.27,3.54c-2-.16-5.39-.57-6.59-2.48a3,3,0,0,1-.44-1.58c0-3.31,4.8-4.08,7.29-4.58a26.64,26.64,0,0,1,7-.38L77.57,237c1.14,1,2.3,1.94,3.46,2.86a21.3,21.3,0,0,1,3.85-20.52,1.48,1.48,0,0,1,2.31.31c4.16,7,5.55,18-.24,24.58q4.32,3,9,5.56Z"/><path class="cls-22" d="M75.64,239.22c-2.11-1.82-4.2-3.69-6.18-5.67a21,21,0,0,1-18.81-1.29,1.43,1.43,0,0,1,0-2.45,20.29,20.29,0,0,1,9.68-2.39,19.27,19.27,0,0,1,3.79.48c-2.35-2.68-4.59-5.47-6.69-8.37l2.36-1.76a104.58,104.58,0,0,0,7.89,9.69,7,7,0,0,0-.41-1.77A18.74,18.74,0,0,1,72,209.08a1.42,1.42,0,0,1,2.35.63c2.35,6.47,1.74,15.65-3.73,20.49l-.11.24q3.39,3.45,7.07,6.55Z"/><path class="cls-23" d="M55.13,210.74a25.07,25.07,0,0,1,5.95-14.48,1.45,1.45,0,0,1,2.41.65c1.46,7.05.58,14.78-3.82,20.69l.12.17-2.36,1.76c-8.1,2.83-17.14-.91-21.43-8.23a1.51,1.51,0,0,1,1.29-2.24,26,26,0,0,1,15.25,3.08c-.57-.95-1.14-1.9-1.67-2.86l2.57-1.41C54,208.83,54.55,209.79,55.13,210.74Z"/><path class="cls-24" d="M56.46,86.88q-2.28,4.07-4.29,8.29a22,22,0,0,1,18,1.77,1.3,1.3,0,0,1,.25,2c-5.08,6.28-14.8,7.11-20.64,1.62q-1.8,4.26-3.32,8.66l-2.88-1c.84-2.47,1.76-4.94,2.75-7.37a.65.65,0,0,1-1,0c-4.71-5.66-5.84-12.69-4.11-19.77a1.29,1.29,0,0,1,2.15-.56,34,34,0,0,1,6.79,11.75c1.25-2.55,2.58-5.08,4-7.57-1.46-7,2.69-14.25,9-17.4a1.42,1.42,0,0,1,1.87.49C69.88,75,65.87,86.64,56.46,86.88Z"/><path class="cls-25" d="M46.42,109.22q-1.48,4.4-2.69,8.88a16.69,16.69,0,0,1,15.85-.61,1.34,1.34,0,0,1,.27,2.09c-4.41,4.73-11.45,7.26-17.7,5-.47,2.17-.88,4.34-1.24,6.54l-3-.48c.42-2.61.91-5.2,1.49-7.78-6.84-3.31-9.2-11.94-5.94-18.72a1.39,1.39,0,0,1,2.13-.27A22.21,22.21,0,0,1,42,112.85c.47-1.55,1-3.09,1.5-4.62Z"/><path class="cls-26" d="M51.84,204.94c.52,1,1,2,1.6,2.93l-2.57,1.41c-.54-.93-1.06-1.88-1.57-2.84-1.2-2.27-2.3-4.56-3.32-6.87-6.94,1-13.44-3.49-15.95-10-.37-1,.55-1.68,1.37-1.79A14.65,14.65,0,0,1,42.64,191c-.09-.27-.19-.55-.27-.83l2.79-.93c.21.61.41,1.2.62,1.79a27.53,27.53,0,0,1,10.08-13.23,1.36,1.36,0,0,1,2,.82c1.26,7.27-2,16.37-9.46,19C49.44,200.12,50.59,202.54,51.84,204.94Z"/><path class="cls-27" d="M41.72,176.53a111.8,111.8,0,0,0,3.44,12.7l-2.79.93a107.76,107.76,0,0,1-3.34-12,1.45,1.45,0,0,1-.57-.17.52.52,0,0,1-.55.44,18,18,0,0,1-12.32-7.3c-1.47-1.9-5-6.77-2.05-9.08,2.56-2,7.59,1.21,9.59,2.68a18.73,18.73,0,0,1,4.29,4.47,120.54,120.54,0,0,1-1.13-12.88l3-.14a125,125,0,0,0,1.12,12.67c2.34-5.55,6-10.1,12.77-11,.94-.12,1.46,1,1.31,1.71A24,24,0,0,1,41.72,176.53Z"/><path class="cls-28" d="M36.74,139.84c.28-3.06.68-6.13,1.17-9.17l3,.48c-.59,3.65-1,7.3-1.31,11a23.09,23.09,0,0,1,15.34-7.76c.94-.1,1.47,1,1.32,1.75-1.56,7.79-8.85,14.31-17,13.25,0,2.27,0,4.55,0,6.82l-3,.14c-.11-3-.11-6,0-9.05A15.24,15.24,0,0,1,24.2,130.47a1.41,1.41,0,0,1,2.08-1.2A23.9,23.9,0,0,1,36.74,139.84Z"/><path class="cls-29" d="M244.5,33.53C196.29-5.84,126.93-11,73.46,20.61,19.65,52.47-9,115.9,2.52,177.42,15.75,248.09,81.86,302.6,154,301.19a1.17,1.17,0,0,0,.92-.44c59.73-1.12,114.91-38.6,136.33-94.78C314.42,145.21,294.81,74.61,244.5,33.53Zm25.15,181.25c-26.8,51.77-88.56,79.79-145.19,66.1a1.51,1.51,0,0,0-1.87,1.58c-23.9-4.32-45.76-17.92-63.32-34.57-1.83-1.73-3.61-3.48-5.32-5.26a133.64,133.64,0,0,1-21.5-29.43A137.47,137.47,0,0,1,17.6,169.25C9,114.31,37.1,57.82,86.22,31.7A132.76,132.76,0,0,1,172,18.14c30.4,5.55,56,21.56,77.63,43.26C289.27,101.22,295,165.75,269.65,214.78Z"/></g></g></svg>