<?xml version="1.0" encoding="UTF-8"?>
<svg id="Layer_2" data-name="Layer 2" xmlns="http://www.w3.org/2000/svg" viewBox="0 0 264.99 264.99">
    <path class="cls-1" d="m132.5,0C59.3,0,0,59.3,0,132.5s59.3,132.5,132.5,132.5,132.5-59.3,132.5-132.5S205.69,0,132.5,0Zm114.18,129.94c-22.98-6.58-51.58-10.46-81.33-3.88-3.15-7.08-6.4-13.89-9.69-20.42,30.02-12.98,51.81-30.15,66.16-44.23,15.12,18.91,24.31,42.63,24.85,68.53ZM132.5,18.28c29.56,0,56.52,11.24,76.8,29.74-13.25,13.02-33.76,29.33-62.18,41.39-17.22-31.11-34.68-54.46-44.87-67.02,9.64-2.7,19.78-4.11,30.25-4.11Zm-48.48,10.83c8.04,9.59,26.77,33.49,45.51,66.89-41.99,13.62-86.72,14.8-109.06,14.35,7.08-36.05,31.16-66.02,63.55-81.23ZM18.28,132.5c0-1.28,0-2.6.09-3.88,3.11.09,6.67.14,10.6.14,25.95,0,68.58-2.56,109.29-16.4,3.11,6.03,6.12,12.34,9.05,18.87-57.57,19.51-88.18,58.53-100.06,77.21-18-20.19-28.97-46.78-28.97-75.93Zm114.22,114.22c-27.14,0-52.08-9.5-71.68-25.36v-.05c8.73-14.53,37.05-54.46,93.66-73.28,10.78,27.09,19.42,57.38,22.8,89.5-13.75,5.94-28.88,9.18-44.77,9.18Zm62.14-18.41c-3.93-30.57-12.11-59.21-22.2-85.07,26.64-5.12,52.59-.78,73.1,5.57-4.75,33.26-23.89,61.91-50.9,79.5Z"/>
  </g>
</svg>