<?xml version="1.0" encoding="UTF-8"?>
<svg id="Layer_2" data-name="Layer 2" xmlns="http://www.w3.org/2000/svg" viewBox="0 0 137.99 261.38">
  <defs>
    <style>
      .cls-1 {
        stroke-width: 0px;
      }
    </style>
  </defs>
  <g id="objects">
    <path class="cls-1" d="m137.92,115.28l-3.31,26.58c-.56,4.44-4.32,7.78-8.78,7.78h-43.05v111.13c-4.54.41-9.14.62-13.79.62-10.4,0-20.55-1.04-30.36-3.02v-108.73H5.52c-3.04,0-5.52-2.49-5.52-5.54v-33.26c0-3.05,2.48-5.54,5.52-5.54h33.11v-49.88C38.63,24.81,63.34,0,93.83,0h38.63c3.04,0,5.52,2.49,5.52,5.54v33.26c0,3.05-2.48,5.54-5.52,5.54h-27.6c-12.19,0-22.07,9.92-22.07,22.17v38.8h46.36c5.32,0,9.43,4.68,8.78,9.98Z"/>
  </g>
</svg>