<?xml version="1.0" encoding="UTF-8"?>
<svg id="Layer_2" data-name="Layer 2" xmlns="http://www.w3.org/2000/svg" viewBox="0 0 397.35 397.35">
  <defs>
    <style>
      .cls-1 {
        fill: #121214;
      }

      .cls-1, .cls-2 {
        stroke-width: 0px;
      }

      .cls-2 {
        fill: #fff;
      }
    </style>
  </defs>
  <g id="objects">
    <path class="cls-1" d="m397.35,198.68c0,109.73-88.95,198.68-198.68,198.68h0C88.95,397.35,0,308.4,0,198.68h0C0,88.95,88.95,0,198.68,0h0c109.73,0,198.68,88.95,198.68,198.68h0Z"/>
    <path class="cls-2" d="m257.54,183.26l-3.31,26.58c-.56,4.44-4.32,7.78-8.78,7.78h-43.05v111.13c-4.54.41-9.14.62-13.79.62-10.4,0-20.55-1.04-30.36-3.02v-108.73h-33.11c-3.04,0-5.52-2.49-5.52-5.54v-33.26c0-3.05,2.48-5.54,5.52-5.54h33.11v-49.88c0-30.61,24.71-55.42,55.2-55.42h38.63c3.04,0,5.52,2.49,5.52,5.54v33.26c0,3.05-2.48,5.54-5.52,5.54h-27.6c-12.19,0-22.07,9.92-22.07,22.17v38.8h46.36c5.32,0,9.43,4.68,8.78,9.98Z"/>
  </g>
</svg>