<?xml version="1.0" encoding="UTF-8"?>
<svg id="Layer_2" data-name="Layer 2" xmlns="http://www.w3.org/2000/svg" viewBox="0 0 208.43 208.43">
  <defs>
    <style>
      .cls-1 {
        stroke-width: 0px;
      }
    </style>
  </defs>
  <g id="objects">
    <g>
      <path class="cls-1" d="m158.12,0H50.31C22.53,0,0,22.53,0,50.31v107.81c0,27.78,22.53,50.31,50.31,50.31h107.81c27.78,0,50.31-22.53,50.31-50.31V50.31c0-27.78-22.53-50.31-50.31-50.31Zm32.34,154.52c0,19.84-16.1,35.94-35.94,35.94H53.9c-19.84,0-35.94-16.1-35.94-35.94V53.9c0-19.84,16.1-35.94,35.94-35.94h100.62c19.84,0,35.94,16.1,35.94,35.94v100.62Z"/>
      <path class="cls-1" d="m104.32,50.31c-29.75,0-53.9,24.15-53.9,53.9s24.15,53.9,53.9,53.9,53.9-24.15,53.9-53.9-24.15-53.9-53.9-53.9Zm0,89.84c-19.8,0-35.94-16.14-35.94-35.94s16.14-35.94,35.94-35.94,35.94,16.14,35.94,35.94-16.14,35.94-35.94,35.94Z"/>
      <circle class="cls-1" cx="161.81" cy="46.72" r="10.78"/>
    </g>
  </g>
</svg>