<?xml version="1.0" encoding="UTF-8"?>
<svg id="Layer_2" data-name="Layer 2" xmlns="http://www.w3.org/2000/svg" viewBox="0 0 397.35 397.35">
  <defs>
    <style>
      .cls-1 {
        fill: #121214;
      }

      .cls-1, .cls-2 {
        stroke-width: 0px;
      }

      .cls-2 {
        fill: #fff;
      }
    </style>
  </defs>
  <g id="objects">
    <g>
      <path class="cls-1" d="m397.35,198.68c0,109.73-88.95,198.68-198.68,198.68h0C88.95,397.35,0,308.4,0,198.68h0C0,88.95,88.95,0,198.68,0h0c109.73,0,198.68,88.95,198.68,198.68h0Z"/>
      <g>
        <circle class="cls-2" cx="128.31" cy="119.97" r="25.59"/>
        <rect class="cls-2" x="106.98" y="162.62" width="42.65" height="127.94" rx="1.91" ry="1.91"/>
        <path class="cls-2" d="m294.64,209.53v72.5c0,4.69-3.84,8.53-8.53,8.53h-25.59c-4.69,0-8.53-3.84-8.53-8.53v-59.71c0-11.77-9.55-21.32-21.32-21.32s-21.32,9.55-21.32,21.32v59.71c0,4.69-3.84,8.53-8.53,8.53h-25.59c-4.69,0-8.53-3.84-8.53-8.53v-110.89c0-4.69,3.84-8.53,8.53-8.53h25.59c4.69,0,8.53,3.84,8.53,8.53v5.46c8.53-11.05,22.65-18.25,38.38-18.25,23.54,0,46.91,17.06,46.91,51.18Z"/>
      </g>
    </g>
  </g>
</svg>