<?xml version="1.0" encoding="UTF-8"?>
<svg id="Layer_2" data-name="Layer 2" xmlns="http://www.w3.org/2000/svg" viewBox="0 0 185.21 244.5">
  <defs>
    <style>
      .cls-1 {
        stroke-width: 0px;
      }
    </style>
  </defs>
  <g id="objects">
    <path class="cls-1" d="m44.94,244.5c3.87-3.61,20.01-20.31,28.51-54.93l6.41-26.32c6.01,6.26,14.36,10.44,23.16,12.58,35.59,8.76,70.05-29.27,79.01-65.83,12.58-51.17-13.54-96.32-56.82-106.91C75.39-9.14,16.59,15.19,2.23,73.69c-5.04,20.57-3.36,51.67,24.54,66.49,2.85,1.53,6.36-.05,7.13-3.21l3.92-15.83c.41-1.83-.31-3.72-1.73-4.99-9.93-9.01-12.22-23.72-8.86-37.52,9.72-39.56,50.4-55.8,85.02-47.3,30.04,7.38,48.31,38.03,39.81,72.65-6.06,24.74-23.22,51.98-47.96,45.92-14.82-3.61-16.5-18.12-12.47-34.52l9.06-37.06c2.34-9.57-3.51-19.24-13.03-21.59-9.57-2.34-24.69,4.43-29.53,24.23-2.85,11.56-.51,20.82,3.87,26.93l-18.23,74.38c-8.4,34.26-2.04,56.41-.15,61.7"/>
  </g>
</svg>