<?xml version="1.0" encoding="UTF-8"?>
<svg id="Layer_2" data-name="Layer 2" xmlns="http://www.w3.org/2000/svg" viewBox="0 0 397.35 397.35">
  <defs>
    <style>
      .cls-1 {
        fill: #121214;
      }

      .cls-1, .cls-2 {
        stroke-width: 0px;
      }

      .cls-2 {
        fill: #fff;
      }
    </style>
  </defs>
  <g id="objects">
    <g>
      <path class="cls-1" d="m397.35,198.68c0,109.73-88.95,198.68-198.68,198.68h0C88.95,397.35,0,308.4,0,198.68h0C0,88.95,88.95,0,198.68,0h0c109.73,0,198.68,88.95,198.68,198.68h0Z"/>
      <path class="cls-2" d="m316.53,189.62c0-14.79-12-26.79-26.79-26.79-7.12,0-13.55,2.79-18.38,7.29-16.07-12.59-37.71-20.95-61.87-22.93l13.71-41.09,34.55,17.3c-.05.64-.16,1.23-.16,1.93,0,8.89,7.18,16.07,16.07,16.07s16.07-7.18,16.07-16.07-7.23-16.07-16.07-16.07c-4.34,0-8.25,1.71-11.14,4.5l-34.87-17.41c-2.62-1.34-5.73-1.5-8.52-.38-2.79,1.12-4.98,3.37-5.95,6.27l-14.84,44.52c-28.39.05-54,9-72.37,23.36-4.82-4.5-11.25-7.29-18.38-7.29-14.79,0-26.79,12-26.79,26.79,0,11.3,7.02,21,16.93,24.91-.59,3.27-.86,6.54-.86,9.91,0,42.91,45.59,77.68,101.78,77.68s101.78-34.77,101.78-77.68c0-3.37-.27-6.64-.86-9.91,9.91-3.91,16.93-13.61,16.93-24.91Zm-171.43,21.43c0-8.89,7.18-16.07,16.07-16.07s16.07,7.18,16.07,16.07-7.18,16.07-16.07,16.07-16.07-7.18-16.07-16.07Zm95.52,45.8c-.48.75-12.64,18.48-41.95,18.48s-41.46-17.73-41.95-18.48c-1.66-2.46-1.02-5.79,1.45-7.39,2.46-1.66,5.78-.96,7.45,1.45.38.59,9.75,13.71,33.05,13.71s32.68-13.18,33.05-13.71c1.66-2.41,4.98-3.05,7.45-1.39,2.41,1.61,3.05,4.93,1.45,7.34Zm-4.45-29.73c-8.89,0-16.07-7.18-16.07-16.07s7.18-16.07,16.07-16.07,16.07,7.18,16.07,16.07-7.18,16.07-16.07,16.07Z"/>
    </g>
  </g>
</svg>