<?xml version="1.0" encoding="UTF-8"?>
<svg id="Layer_2" data-name="Layer 2" xmlns="http://www.w3.org/2000/svg" viewBox="0 0 397.35 397.35">
  <defs>
    <style>
      .cls-1 {
        fill: #121214;
      }

      .cls-1, .cls-2 {
        stroke-width: 0px;
      }

      .cls-2 {
        fill: #fff;
      }
    </style>
  </defs>
  <g id="objects">
    <g>
      <path class="cls-1" d="m397.35,198.68c0,109.73-88.95,198.68-198.68,198.68h0C88.95,397.35,0,308.4,0,198.68h0C0,88.95,88.95,0,198.68,0h0c109.73,0,198.68,88.95,198.68,198.68h0Z"/>
      <path class="cls-2" d="m318.58,269.63c-5.74,3.99-14.01,8.04-25.05,10.72-2.02.44-3.66,1.93-4.23,3.93l-1.14,4.24c-1.39,4.86-5.81,8.35-10.92,8.6-48.84,2.62-42.6,20.88-78.57,20.88s-29.72-18.26-78.57-20.88c-5.11-.25-9.53-3.74-10.92-8.6l-1.14-4.24c-.57-1.99-2.21-3.49-4.23-3.93-11.04-2.68-19.31-6.73-25.05-10.72-5.49-3.8-4.67-11.97,1.33-14.9,46.38-22.62,45.88-46.81,45.88-46.81l-21.77-16.33c-6.69-4.99-8.46-14.09-4.17-21.19,3.03-4.99,8.46-7.92,14.07-7.92,1.39,0,2.71.19,4.04.5l13.69,3.43c-1.7-5.86-2.59-12.09-2.59-18.51,0-37.89,31.05-68.56,69.42-68.56s69.42,30.66,69.42,68.56c0,6.42-.88,12.65-2.59,18.51l13.69-3.43c7-1.74,14.39,1.25,18.11,7.42,1.58,2.62,2.33,5.48,2.33,8.35,0,4.86-2.27,9.66-6.5,12.84l-21.77,16.33s-.5,24.18,45.88,46.81c6,2.93,6.82,11.09,1.33,14.9Z"/>
    </g>
  </g>
</svg>