<?xml version="1.0" encoding="UTF-8"?>
<svg id="Layer_2" data-name="Layer 2" xmlns="http://www.w3.org/2000/svg" viewBox="0 0 189.01 228.39">
  <defs>
    <style>
      .cls-1 {
        stroke-width: 0px;
      }
    </style>
  </defs>
  <g id="objects">
    <path class="cls-1" d="m133.88,165.39v-98.44s11.1,18.5,51.22,19.63c2.14.06,3.91-1.7,3.91-3.84v-27.82c0-2.07-1.65-3.71-3.72-3.83-31.12-1.76-45.9-25.63-47.35-47.52-.13-2.03-1.91-3.57-3.94-3.57h-31.73c-2.11,0-3.83,1.71-3.83,3.83v156.49c0,17-12.99,31.79-29.97,32.59-19.41.92-35.19-15.74-32.79-35.43,1.7-13.91,12.86-25.3,26.74-27.23,2.76-.38,5.45-.41,8.06-.12,2.31.26,4.34-1.46,4.34-3.78v-27.89c0-1.98-1.51-3.7-3.49-3.82-3.98-.26-8.06-.17-12.2.3C28.52,98.42,3.81,123.19.42,153.81c-4.47,40.39,27.03,74.58,66.52,74.58,36.97,0,66.94-29.97,66.94-66.94"/>
  </g>
</svg>