<?xml version="1.0" encoding="UTF-8"?>
<svg id="Layer_2" data-name="Layer 2" xmlns="http://www.w3.org/2000/svg" viewBox="0 0 397.35 397.35">
  <defs>
    <style>
      .cls-1 {
        fill: #121214;
      }

      .cls-1, .cls-2 {
        stroke-width: 0px;
      }

      .cls-2 {
        fill: #fff;
      }
    </style>
  </defs>
  <g id="objects">
    <g>
      <path class="cls-1" d="m397.35,198.68c0,109.73-88.95,198.68-198.68,198.68h0C88.95,397.35,0,308.4,0,198.68h0C0,88.95,88.95,0,198.68,0h0c109.73,0,198.68,88.95,198.68,198.68h0Z"/>
      <path class="cls-2" d="m227.35,180.43l80.37-85.96h-30.52l-63.08,67.48-48.31-67.48h-83.48l84.5,118.04-84.5,90.39h30.52l67.22-71.9,51.47,71.9h83.48l-87.67-122.46Zm-102.01-63.86h29.1l117.56,164.21h-29.1L125.34,116.57Z"/>
    </g>
  </g>
</svg>