<?xml version="1.0" encoding="UTF-8"?>
<svg id="Layer_2" data-name="Layer 2" xmlns="http://www.w3.org/2000/svg" viewBox="0 0 397.35 397.35">
  <defs>
    <style>
      .cls-1 {
        fill: #121214;
      }

      .cls-1, .cls-2 {
        stroke-width: 0px;
      }

      .cls-2 {
        fill: #fff;
      }
    </style>
  </defs>
  <g id="objects">
    <g>
      <path class="cls-1" d="m397.35,198.68c0,109.73-88.95,198.68-198.68,198.68h0C88.95,397.35,0,308.4,0,198.68h0C0,88.95,88.95,0,198.68,0h0c109.73,0,198.68,88.95,198.68,198.68h0Z"/>
      <path class="cls-2" d="m284.3,114.49H113.06c-16.92,0-30.64,13.72-30.64,30.63v107.1c0,16.92,13.72,30.63,30.64,30.63h171.24c16.91,0,30.63-13.71,30.63-30.63v-107.1c0-16.91-13.72-30.63-30.63-30.63Zm-58.12,91.57l-47.62,23.8c-5.5,2.75-11.96-1.24-11.96-7.38v-47.6c0-6.14,6.47-10.13,11.96-7.39l47.62,23.8c6.08,3.04,6.08,11.73,0,14.77Z"/>
    </g>
  </g>
</svg>